<mxfile host="Electron" agent="Mozilla/5.0 (Windows NT 10.0; Win64; x64) AppleWebKit/537.36 (KHTML, like Gecko) draw.io/24.7.5 Chrome/126.0.6478.183 Electron/31.3.0 Safari/537.36" version="24.7.5">
  <diagram id="C5RBs43oDa-KdzZeNtuy" name="Page-1">
    <mxGraphModel dx="1877" dy="1798" grid="1" gridSize="10" guides="1" tooltips="1" connect="1" arrows="1" fold="1" page="1" pageScale="1" pageWidth="827" pageHeight="1169" math="0" shadow="0">
      <root>
        <mxCell id="WIyWlLk6GJQsqaUBKTNV-0" />
        <mxCell id="WIyWlLk6GJQsqaUBKTNV-1" parent="WIyWlLk6GJQsqaUBKTNV-0" />
        <mxCell id="WIyWlLk6GJQsqaUBKTNV-2" value="" style="rounded=0;html=1;jettySize=auto;orthogonalLoop=1;fontSize=11;endArrow=block;endFill=0;endSize=8;strokeWidth=1;shadow=0;labelBackgroundColor=none;edgeStyle=orthogonalEdgeStyle;exitX=0.5;exitY=1;exitDx=0;exitDy=0;" parent="WIyWlLk6GJQsqaUBKTNV-1" source="jmie2GALdOfMO_LWPtyA-3" target="WIyWlLk6GJQsqaUBKTNV-6" edge="1">
          <mxGeometry relative="1" as="geometry">
            <mxPoint x="220" y="120" as="sourcePoint" />
          </mxGeometry>
        </mxCell>
        <mxCell id="WIyWlLk6GJQsqaUBKTNV-4" value="Yes" style="rounded=0;html=1;jettySize=auto;orthogonalLoop=1;fontSize=11;endArrow=block;endFill=0;endSize=8;strokeWidth=1;shadow=0;labelBackgroundColor=none;edgeStyle=orthogonalEdgeStyle;entryX=0.5;entryY=0;entryDx=0;entryDy=0;" parent="WIyWlLk6GJQsqaUBKTNV-1" source="WIyWlLk6GJQsqaUBKTNV-6" target="jmie2GALdOfMO_LWPtyA-21" edge="1">
          <mxGeometry y="20" relative="1" as="geometry">
            <mxPoint as="offset" />
            <mxPoint x="220" y="390" as="targetPoint" />
          </mxGeometry>
        </mxCell>
        <mxCell id="WIyWlLk6GJQsqaUBKTNV-5" value="No" style="edgeStyle=orthogonalEdgeStyle;rounded=0;html=1;jettySize=auto;orthogonalLoop=1;fontSize=11;endArrow=block;endFill=0;endSize=8;strokeWidth=1;shadow=0;labelBackgroundColor=none;entryX=0;entryY=0.5;entryDx=0;entryDy=0;" parent="WIyWlLk6GJQsqaUBKTNV-1" source="WIyWlLk6GJQsqaUBKTNV-6" target="jmie2GALdOfMO_LWPtyA-6" edge="1">
          <mxGeometry y="10" relative="1" as="geometry">
            <mxPoint as="offset" />
            <mxPoint x="370" y="210" as="targetPoint" />
          </mxGeometry>
        </mxCell>
        <mxCell id="WIyWlLk6GJQsqaUBKTNV-6" value="Was login successful?" style="rhombus;whiteSpace=wrap;html=1;shadow=0;fontFamily=Helvetica;fontSize=12;align=center;strokeWidth=1;spacing=6;spacingTop=-4;" parent="WIyWlLk6GJQsqaUBKTNV-1" vertex="1">
          <mxGeometry x="170" y="170" width="100" height="80" as="geometry" />
        </mxCell>
        <mxCell id="jmie2GALdOfMO_LWPtyA-2" style="edgeStyle=orthogonalEdgeStyle;rounded=0;orthogonalLoop=1;jettySize=auto;html=1;entryX=0.5;entryY=0;entryDx=0;entryDy=0;endArrow=block;endFill=0;" edge="1" parent="WIyWlLk6GJQsqaUBKTNV-1" source="jmie2GALdOfMO_LWPtyA-0" target="jmie2GALdOfMO_LWPtyA-3">
          <mxGeometry relative="1" as="geometry">
            <mxPoint x="220" y="60" as="targetPoint" />
          </mxGeometry>
        </mxCell>
        <mxCell id="jmie2GALdOfMO_LWPtyA-0" value="Start" style="ellipse;whiteSpace=wrap;html=1;" vertex="1" parent="WIyWlLk6GJQsqaUBKTNV-1">
          <mxGeometry x="170" y="-70" width="100" height="70" as="geometry" />
        </mxCell>
        <mxCell id="jmie2GALdOfMO_LWPtyA-3" value="Login" style="rounded=1;whiteSpace=wrap;html=1;" vertex="1" parent="WIyWlLk6GJQsqaUBKTNV-1">
          <mxGeometry x="160" y="60" width="120" height="60" as="geometry" />
        </mxCell>
        <mxCell id="jmie2GALdOfMO_LWPtyA-11" style="edgeStyle=orthogonalEdgeStyle;rounded=0;orthogonalLoop=1;jettySize=auto;html=1;exitX=0.5;exitY=1;exitDx=0;exitDy=0;entryX=0.5;entryY=0;entryDx=0;entryDy=0;endArrow=block;endFill=0;" edge="1" parent="WIyWlLk6GJQsqaUBKTNV-1" source="jmie2GALdOfMO_LWPtyA-6" target="jmie2GALdOfMO_LWPtyA-8">
          <mxGeometry relative="1" as="geometry" />
        </mxCell>
        <mxCell id="jmie2GALdOfMO_LWPtyA-13" value="No" style="edgeLabel;html=1;align=center;verticalAlign=middle;resizable=0;points=[];" vertex="1" connectable="0" parent="jmie2GALdOfMO_LWPtyA-11">
          <mxGeometry x="0.1654" y="-3" relative="1" as="geometry">
            <mxPoint x="3" y="-13" as="offset" />
          </mxGeometry>
        </mxCell>
        <mxCell id="jmie2GALdOfMO_LWPtyA-33" style="edgeStyle=orthogonalEdgeStyle;rounded=0;orthogonalLoop=1;jettySize=auto;html=1;exitX=1;exitY=0.5;exitDx=0;exitDy=0;entryX=0;entryY=0.5;entryDx=0;entryDy=0;endArrow=block;endFill=0;" edge="1" parent="WIyWlLk6GJQsqaUBKTNV-1" source="jmie2GALdOfMO_LWPtyA-6" target="jmie2GALdOfMO_LWPtyA-15">
          <mxGeometry relative="1" as="geometry" />
        </mxCell>
        <mxCell id="jmie2GALdOfMO_LWPtyA-34" value="Yes" style="edgeLabel;html=1;align=center;verticalAlign=middle;resizable=0;points=[];" vertex="1" connectable="0" parent="jmie2GALdOfMO_LWPtyA-33">
          <mxGeometry x="-0.0794" y="1" relative="1" as="geometry">
            <mxPoint y="-9" as="offset" />
          </mxGeometry>
        </mxCell>
        <mxCell id="jmie2GALdOfMO_LWPtyA-6" value="Does the user have an account?" style="rhombus;whiteSpace=wrap;html=1;" vertex="1" parent="WIyWlLk6GJQsqaUBKTNV-1">
          <mxGeometry x="410" y="162.5" width="104" height="95" as="geometry" />
        </mxCell>
        <mxCell id="jmie2GALdOfMO_LWPtyA-25" style="edgeStyle=orthogonalEdgeStyle;rounded=0;orthogonalLoop=1;jettySize=auto;html=1;exitX=0.5;exitY=1;exitDx=0;exitDy=0;entryX=0.5;entryY=0;entryDx=0;entryDy=0;endArrow=block;endFill=0;" edge="1" parent="WIyWlLk6GJQsqaUBKTNV-1" source="jmie2GALdOfMO_LWPtyA-8" target="jmie2GALdOfMO_LWPtyA-23">
          <mxGeometry relative="1" as="geometry" />
        </mxCell>
        <mxCell id="jmie2GALdOfMO_LWPtyA-8" value="Sign up" style="rounded=1;whiteSpace=wrap;html=1;" vertex="1" parent="WIyWlLk6GJQsqaUBKTNV-1">
          <mxGeometry x="402" y="320" width="120" height="60" as="geometry" />
        </mxCell>
        <mxCell id="jmie2GALdOfMO_LWPtyA-27" style="edgeStyle=orthogonalEdgeStyle;rounded=0;orthogonalLoop=1;jettySize=auto;html=1;exitX=0.5;exitY=1;exitDx=0;exitDy=0;entryX=0.5;entryY=0;entryDx=0;entryDy=0;endArrow=block;endFill=0;" edge="1" parent="WIyWlLk6GJQsqaUBKTNV-1" source="jmie2GALdOfMO_LWPtyA-9" target="jmie2GALdOfMO_LWPtyA-24">
          <mxGeometry relative="1" as="geometry" />
        </mxCell>
        <mxCell id="jmie2GALdOfMO_LWPtyA-9" value="Retry Login with correct details" style="rounded=1;whiteSpace=wrap;html=1;" vertex="1" parent="WIyWlLk6GJQsqaUBKTNV-1">
          <mxGeometry x="630" y="317.5" width="120" height="60" as="geometry" />
        </mxCell>
        <mxCell id="jmie2GALdOfMO_LWPtyA-38" style="edgeStyle=orthogonalEdgeStyle;rounded=0;orthogonalLoop=1;jettySize=auto;html=1;exitX=0.5;exitY=1;exitDx=0;exitDy=0;entryX=0.5;entryY=0;entryDx=0;entryDy=0;endArrow=block;endFill=0;" edge="1" parent="WIyWlLk6GJQsqaUBKTNV-1" source="jmie2GALdOfMO_LWPtyA-15" target="jmie2GALdOfMO_LWPtyA-9">
          <mxGeometry relative="1" as="geometry" />
        </mxCell>
        <mxCell id="jmie2GALdOfMO_LWPtyA-39" value="No" style="edgeLabel;html=1;align=center;verticalAlign=middle;resizable=0;points=[];" vertex="1" connectable="0" parent="jmie2GALdOfMO_LWPtyA-38">
          <mxGeometry x="-0.1168" y="3" relative="1" as="geometry">
            <mxPoint x="-3" y="-3" as="offset" />
          </mxGeometry>
        </mxCell>
        <mxCell id="jmie2GALdOfMO_LWPtyA-15" value="Have they entered correct details?" style="rhombus;whiteSpace=wrap;html=1;" vertex="1" parent="WIyWlLk6GJQsqaUBKTNV-1">
          <mxGeometry x="640" y="165" width="100" height="90" as="geometry" />
        </mxCell>
        <mxCell id="jmie2GALdOfMO_LWPtyA-71" style="rounded=0;orthogonalLoop=1;jettySize=auto;html=1;endArrow=block;endFill=0;exitX=0;exitY=0.5;exitDx=0;exitDy=0;entryX=1;entryY=0.5;entryDx=0;entryDy=0;" edge="1" parent="WIyWlLk6GJQsqaUBKTNV-1" source="jmie2GALdOfMO_LWPtyA-21" target="jmie2GALdOfMO_LWPtyA-70">
          <mxGeometry relative="1" as="geometry">
            <mxPoint x="80" y="620" as="sourcePoint" />
            <mxPoint x="-130" y="510" as="targetPoint" />
          </mxGeometry>
        </mxCell>
        <mxCell id="jmie2GALdOfMO_LWPtyA-21" value="Go to Alignment Feed" style="rounded=1;whiteSpace=wrap;html=1;" vertex="1" parent="WIyWlLk6GJQsqaUBKTNV-1">
          <mxGeometry x="160" y="590" width="120" height="60" as="geometry" />
        </mxCell>
        <mxCell id="jmie2GALdOfMO_LWPtyA-45" style="edgeStyle=orthogonalEdgeStyle;rounded=0;orthogonalLoop=1;jettySize=auto;html=1;exitX=0.5;exitY=1;exitDx=0;exitDy=0;entryX=1;entryY=0.5;entryDx=0;entryDy=0;endArrow=block;endFill=0;" edge="1" parent="WIyWlLk6GJQsqaUBKTNV-1" source="jmie2GALdOfMO_LWPtyA-23" target="jmie2GALdOfMO_LWPtyA-21">
          <mxGeometry relative="1" as="geometry">
            <mxPoint x="462" y="620" as="targetPoint" />
          </mxGeometry>
        </mxCell>
        <mxCell id="jmie2GALdOfMO_LWPtyA-46" value="Yes" style="edgeLabel;html=1;align=center;verticalAlign=middle;resizable=0;points=[];" vertex="1" connectable="0" parent="jmie2GALdOfMO_LWPtyA-45">
          <mxGeometry x="-0.7475" y="-1" relative="1" as="geometry">
            <mxPoint as="offset" />
          </mxGeometry>
        </mxCell>
        <mxCell id="jmie2GALdOfMO_LWPtyA-23" value="Was sign-up successful?" style="rhombus;whiteSpace=wrap;html=1;" vertex="1" parent="WIyWlLk6GJQsqaUBKTNV-1">
          <mxGeometry x="422" y="440" width="80" height="80" as="geometry" />
        </mxCell>
        <mxCell id="jmie2GALdOfMO_LWPtyA-28" style="edgeStyle=orthogonalEdgeStyle;rounded=0;orthogonalLoop=1;jettySize=auto;html=1;exitX=0.5;exitY=1;exitDx=0;exitDy=0;entryX=1;entryY=0.5;entryDx=0;entryDy=0;endArrow=block;endFill=0;" edge="1" parent="WIyWlLk6GJQsqaUBKTNV-1" source="jmie2GALdOfMO_LWPtyA-24" target="jmie2GALdOfMO_LWPtyA-21">
          <mxGeometry relative="1" as="geometry" />
        </mxCell>
        <mxCell id="jmie2GALdOfMO_LWPtyA-32" value="Yes" style="edgeLabel;html=1;align=center;verticalAlign=middle;resizable=0;points=[];" vertex="1" connectable="0" parent="jmie2GALdOfMO_LWPtyA-28">
          <mxGeometry x="-0.8382" relative="1" as="geometry">
            <mxPoint as="offset" />
          </mxGeometry>
        </mxCell>
        <mxCell id="jmie2GALdOfMO_LWPtyA-40" style="rounded=0;orthogonalLoop=1;jettySize=auto;html=1;exitX=1;exitY=0.5;exitDx=0;exitDy=0;entryX=1;entryY=0.5;entryDx=0;entryDy=0;endArrow=block;endFill=1;edgeStyle=orthogonalEdgeStyle;" edge="1" parent="WIyWlLk6GJQsqaUBKTNV-1" source="jmie2GALdOfMO_LWPtyA-24" target="jmie2GALdOfMO_LWPtyA-15">
          <mxGeometry relative="1" as="geometry">
            <Array as="points">
              <mxPoint x="790" y="478" />
              <mxPoint x="790" y="210" />
            </Array>
          </mxGeometry>
        </mxCell>
        <mxCell id="jmie2GALdOfMO_LWPtyA-41" value="No" style="edgeLabel;html=1;align=center;verticalAlign=middle;resizable=0;points=[];" vertex="1" connectable="0" parent="jmie2GALdOfMO_LWPtyA-40">
          <mxGeometry x="0.1165" relative="1" as="geometry">
            <mxPoint y="22" as="offset" />
          </mxGeometry>
        </mxCell>
        <mxCell id="jmie2GALdOfMO_LWPtyA-24" value="Was login successful?" style="rhombus;whiteSpace=wrap;html=1;" vertex="1" parent="WIyWlLk6GJQsqaUBKTNV-1">
          <mxGeometry x="650" y="437.5" width="80" height="80" as="geometry" />
        </mxCell>
        <mxCell id="jmie2GALdOfMO_LWPtyA-53" style="rounded=0;orthogonalLoop=1;jettySize=auto;html=1;entryX=0.5;entryY=0;entryDx=0;entryDy=0;endArrow=block;endFill=0;exitX=0.25;exitY=1;exitDx=0;exitDy=0;" edge="1" parent="WIyWlLk6GJQsqaUBKTNV-1" source="jmie2GALdOfMO_LWPtyA-21" target="jmie2GALdOfMO_LWPtyA-50">
          <mxGeometry relative="1" as="geometry">
            <mxPoint x="200" y="680" as="sourcePoint" />
          </mxGeometry>
        </mxCell>
        <mxCell id="jmie2GALdOfMO_LWPtyA-54" style="rounded=0;orthogonalLoop=1;jettySize=auto;html=1;entryX=0.5;entryY=0;entryDx=0;entryDy=0;endArrow=block;endFill=0;exitX=0.75;exitY=1;exitDx=0;exitDy=0;" edge="1" parent="WIyWlLk6GJQsqaUBKTNV-1" source="jmie2GALdOfMO_LWPtyA-21" target="jmie2GALdOfMO_LWPtyA-51">
          <mxGeometry relative="1" as="geometry">
            <mxPoint x="252" y="680" as="sourcePoint" />
          </mxGeometry>
        </mxCell>
        <mxCell id="jmie2GALdOfMO_LWPtyA-63" style="rounded=0;orthogonalLoop=1;jettySize=auto;html=1;exitX=0.5;exitY=1;exitDx=0;exitDy=0;entryX=0.25;entryY=0;entryDx=0;entryDy=0;endArrow=block;endFill=0;" edge="1" parent="WIyWlLk6GJQsqaUBKTNV-1" source="jmie2GALdOfMO_LWPtyA-49" target="jmie2GALdOfMO_LWPtyA-62">
          <mxGeometry relative="1" as="geometry" />
        </mxCell>
        <mxCell id="jmie2GALdOfMO_LWPtyA-67" value="Yes" style="edgeLabel;html=1;align=center;verticalAlign=middle;resizable=0;points=[];" vertex="1" connectable="0" parent="jmie2GALdOfMO_LWPtyA-63">
          <mxGeometry x="-0.1388" relative="1" as="geometry">
            <mxPoint x="-5" y="-3" as="offset" />
          </mxGeometry>
        </mxCell>
        <mxCell id="jmie2GALdOfMO_LWPtyA-64" style="edgeStyle=orthogonalEdgeStyle;rounded=0;orthogonalLoop=1;jettySize=auto;html=1;exitX=0;exitY=0.5;exitDx=0;exitDy=0;entryX=0;entryY=0.5;entryDx=0;entryDy=0;" edge="1" parent="WIyWlLk6GJQsqaUBKTNV-1" source="jmie2GALdOfMO_LWPtyA-49" target="jmie2GALdOfMO_LWPtyA-50">
          <mxGeometry relative="1" as="geometry">
            <Array as="points">
              <mxPoint x="12" y="920" />
              <mxPoint x="12" y="780" />
            </Array>
          </mxGeometry>
        </mxCell>
        <mxCell id="jmie2GALdOfMO_LWPtyA-65" value="No" style="edgeLabel;html=1;align=center;verticalAlign=middle;resizable=0;points=[];" vertex="1" connectable="0" parent="jmie2GALdOfMO_LWPtyA-64">
          <mxGeometry x="0.194" y="-1" relative="1" as="geometry">
            <mxPoint y="11" as="offset" />
          </mxGeometry>
        </mxCell>
        <mxCell id="jmie2GALdOfMO_LWPtyA-49" value="Article found?" style="rhombus;whiteSpace=wrap;html=1;" vertex="1" parent="WIyWlLk6GJQsqaUBKTNV-1">
          <mxGeometry x="62" y="880" width="80" height="80" as="geometry" />
        </mxCell>
        <mxCell id="jmie2GALdOfMO_LWPtyA-57" style="edgeStyle=orthogonalEdgeStyle;rounded=0;orthogonalLoop=1;jettySize=auto;html=1;exitX=0.5;exitY=1;exitDx=0;exitDy=0;entryX=0.5;entryY=0;entryDx=0;entryDy=0;endArrow=block;endFill=0;" edge="1" parent="WIyWlLk6GJQsqaUBKTNV-1" source="jmie2GALdOfMO_LWPtyA-50" target="jmie2GALdOfMO_LWPtyA-49">
          <mxGeometry relative="1" as="geometry" />
        </mxCell>
        <mxCell id="jmie2GALdOfMO_LWPtyA-50" value="Search for specific article" style="rounded=1;whiteSpace=wrap;html=1;" vertex="1" parent="WIyWlLk6GJQsqaUBKTNV-1">
          <mxGeometry x="42" y="750" width="120" height="60" as="geometry" />
        </mxCell>
        <mxCell id="jmie2GALdOfMO_LWPtyA-59" style="edgeStyle=orthogonalEdgeStyle;rounded=0;orthogonalLoop=1;jettySize=auto;html=1;exitX=0.5;exitY=1;exitDx=0;exitDy=0;entryX=0.5;entryY=0;entryDx=0;entryDy=0;endArrow=block;endFill=0;" edge="1" parent="WIyWlLk6GJQsqaUBKTNV-1" source="jmie2GALdOfMO_LWPtyA-51" target="jmie2GALdOfMO_LWPtyA-58">
          <mxGeometry relative="1" as="geometry" />
        </mxCell>
        <mxCell id="jmie2GALdOfMO_LWPtyA-51" value="Filter articles by group" style="rounded=1;whiteSpace=wrap;html=1;" vertex="1" parent="WIyWlLk6GJQsqaUBKTNV-1">
          <mxGeometry x="282" y="750" width="120" height="60" as="geometry" />
        </mxCell>
        <mxCell id="jmie2GALdOfMO_LWPtyA-66" style="rounded=0;orthogonalLoop=1;jettySize=auto;html=1;exitX=0.5;exitY=1;exitDx=0;exitDy=0;entryX=0.75;entryY=0;entryDx=0;entryDy=0;endArrow=block;endFill=0;" edge="1" parent="WIyWlLk6GJQsqaUBKTNV-1" source="jmie2GALdOfMO_LWPtyA-58" target="jmie2GALdOfMO_LWPtyA-62">
          <mxGeometry relative="1" as="geometry" />
        </mxCell>
        <mxCell id="jmie2GALdOfMO_LWPtyA-68" value="Yes" style="edgeLabel;html=1;align=center;verticalAlign=middle;resizable=0;points=[];" vertex="1" connectable="0" parent="jmie2GALdOfMO_LWPtyA-66">
          <mxGeometry x="-0.1976" y="2" relative="1" as="geometry">
            <mxPoint x="-2" as="offset" />
          </mxGeometry>
        </mxCell>
        <mxCell id="jmie2GALdOfMO_LWPtyA-80" value="No" style="edgeStyle=orthogonalEdgeStyle;rounded=0;orthogonalLoop=1;jettySize=auto;html=1;exitX=1;exitY=0.5;exitDx=0;exitDy=0;entryX=1;entryY=0.5;entryDx=0;entryDy=0;" edge="1" parent="WIyWlLk6GJQsqaUBKTNV-1" source="jmie2GALdOfMO_LWPtyA-58" target="jmie2GALdOfMO_LWPtyA-51">
          <mxGeometry x="0.0926" relative="1" as="geometry">
            <Array as="points">
              <mxPoint x="430" y="920" />
              <mxPoint x="430" y="780" />
            </Array>
            <mxPoint as="offset" />
          </mxGeometry>
        </mxCell>
        <mxCell id="jmie2GALdOfMO_LWPtyA-58" value="Articles found?" style="rhombus;whiteSpace=wrap;html=1;" vertex="1" parent="WIyWlLk6GJQsqaUBKTNV-1">
          <mxGeometry x="302" y="880" width="80" height="80" as="geometry" />
        </mxCell>
        <mxCell id="jmie2GALdOfMO_LWPtyA-62" value="Open article" style="rounded=1;whiteSpace=wrap;html=1;" vertex="1" parent="WIyWlLk6GJQsqaUBKTNV-1">
          <mxGeometry x="162" y="1070" width="120" height="60" as="geometry" />
        </mxCell>
        <mxCell id="jmie2GALdOfMO_LWPtyA-74" style="edgeStyle=orthogonalEdgeStyle;rounded=0;orthogonalLoop=1;jettySize=auto;html=1;exitX=0.5;exitY=1;exitDx=0;exitDy=0;entryX=0.5;entryY=0;entryDx=0;entryDy=0;endArrow=block;endFill=0;" edge="1" parent="WIyWlLk6GJQsqaUBKTNV-1" source="jmie2GALdOfMO_LWPtyA-70" target="jmie2GALdOfMO_LWPtyA-72">
          <mxGeometry relative="1" as="geometry" />
        </mxCell>
        <mxCell id="jmie2GALdOfMO_LWPtyA-70" value="Go to Profile/Preferences" style="rounded=1;whiteSpace=wrap;html=1;" vertex="1" parent="WIyWlLk6GJQsqaUBKTNV-1">
          <mxGeometry x="-310" y="590" width="120" height="60" as="geometry" />
        </mxCell>
        <mxCell id="jmie2GALdOfMO_LWPtyA-75" style="edgeStyle=orthogonalEdgeStyle;rounded=0;orthogonalLoop=1;jettySize=auto;html=1;exitX=0.5;exitY=1;exitDx=0;exitDy=0;endArrow=block;endFill=0;" edge="1" parent="WIyWlLk6GJQsqaUBKTNV-1" source="jmie2GALdOfMO_LWPtyA-72" target="jmie2GALdOfMO_LWPtyA-73">
          <mxGeometry relative="1" as="geometry" />
        </mxCell>
        <mxCell id="jmie2GALdOfMO_LWPtyA-72" value="Change feed preferences" style="rounded=1;whiteSpace=wrap;html=1;" vertex="1" parent="WIyWlLk6GJQsqaUBKTNV-1">
          <mxGeometry x="-310" y="720" width="120" height="60" as="geometry" />
        </mxCell>
        <mxCell id="jmie2GALdOfMO_LWPtyA-76" style="edgeStyle=orthogonalEdgeStyle;rounded=0;orthogonalLoop=1;jettySize=auto;html=1;exitX=0;exitY=0.5;exitDx=0;exitDy=0;entryX=0;entryY=0;entryDx=0;entryDy=0;curved=1;" edge="1" parent="WIyWlLk6GJQsqaUBKTNV-1" source="jmie2GALdOfMO_LWPtyA-73" target="jmie2GALdOfMO_LWPtyA-21">
          <mxGeometry relative="1" as="geometry">
            <Array as="points">
              <mxPoint x="-380" y="890" />
              <mxPoint x="-380" y="510" />
              <mxPoint x="160" y="510" />
            </Array>
          </mxGeometry>
        </mxCell>
        <mxCell id="jmie2GALdOfMO_LWPtyA-77" value="Yes" style="edgeLabel;html=1;align=center;verticalAlign=middle;resizable=0;points=[];" vertex="1" connectable="0" parent="jmie2GALdOfMO_LWPtyA-76">
          <mxGeometry x="-0.8962" y="2" relative="1" as="geometry">
            <mxPoint x="-53" y="-212" as="offset" />
          </mxGeometry>
        </mxCell>
        <mxCell id="jmie2GALdOfMO_LWPtyA-78" style="edgeStyle=orthogonalEdgeStyle;rounded=0;orthogonalLoop=1;jettySize=auto;html=1;exitX=1;exitY=0.5;exitDx=0;exitDy=0;entryX=1;entryY=0.5;entryDx=0;entryDy=0;" edge="1" parent="WIyWlLk6GJQsqaUBKTNV-1" source="jmie2GALdOfMO_LWPtyA-73" target="jmie2GALdOfMO_LWPtyA-72">
          <mxGeometry relative="1" as="geometry">
            <Array as="points">
              <mxPoint x="-160" y="890" />
              <mxPoint x="-160" y="750" />
            </Array>
          </mxGeometry>
        </mxCell>
        <mxCell id="jmie2GALdOfMO_LWPtyA-79" value="No" style="edgeLabel;html=1;align=center;verticalAlign=middle;resizable=0;points=[];" vertex="1" connectable="0" parent="jmie2GALdOfMO_LWPtyA-78">
          <mxGeometry x="0.0636" y="-1" relative="1" as="geometry">
            <mxPoint as="offset" />
          </mxGeometry>
        </mxCell>
        <mxCell id="jmie2GALdOfMO_LWPtyA-73" value="Edit successful?" style="rhombus;whiteSpace=wrap;html=1;" vertex="1" parent="WIyWlLk6GJQsqaUBKTNV-1">
          <mxGeometry x="-290" y="850" width="80" height="80" as="geometry" />
        </mxCell>
      </root>
    </mxGraphModel>
  </diagram>
</mxfile>
